{
    "asset" : {
        "generator" : "Khronos glTF Blender I/O v3.3.32",
        "version" : "2.0"
    },
    "extensionsUsed" : [
        "KHR_materials_specular",
        "KHR_materials_ior"
    ],
    "scene" : 0,
    "scenes" : [
        {
            "name" : "Scene",
            "nodes" : [
                0
            ]
        }
    ],
    "nodes" : [
        {
            "mesh" : 0,
            "name" : "Mercury",
            "rotation" : [
                -0.016699248924851418,
                0.9566993117332458,
                -0.005071645136922598,
                0.29055437445640564
            ],
            "scale" : [
                0.03750000521540642,
                0.03749999776482582,
                0.03750000149011612
            ],
            "translation" : [
                0.4195132851600647,
                0,
                -0.6278819441795349
            ]
        }
    ],
    "animations" : [
        {
            "channels" : [
                {
                    "sampler" : 0,
                    "target" : {
                        "node" : 0,
                        "path" : "rotation"
                    }
                }
            ],
            "name" : "MercuryAction",
            "samplers" : [
                {
                    "input" : 4,
                    "interpolation" : "LINEAR",
                    "output" : 5
                }
            ]
        }
    ],
    "materials" : [
        {
            "doubleSided" : true,
            "extensions" : {
                "KHR_materials_specular" : {
                    "specularColorFactor" : [
                        0,
                        0,
                        0
                    ]
                },
                "KHR_materials_ior" : {
                    "ior" : 1.4500000476837158
                }
            },
            "name" : "Mercury",
            "normalTexture" : {
                "index" : 0
            },
            "pbrMetallicRoughness" : {
                "baseColorTexture" : {
                    "index" : 1
                },
                "metallicFactor" : 0,
                "roughnessFactor" : 0.5
            }
        }
    ],
    "meshes" : [
        {
            "name" : "Sphere.001",
            "primitives" : [
                {
                    "attributes" : {
                        "POSITION" : 0,
                        "NORMAL" : 1,
                        "TEXCOORD_0" : 2
                    },
                    "indices" : 3,
                    "material" : 0
                }
            ]
        }
    ],
    "textures" : [
        {
            "sampler" : 0,
            "source" : 0
        },
        {
            "sampler" : 0,
            "source" : 0
        }
    ],
    "images" : [
        {
            "bufferView" : 4,
            "mimeType" : "image/jpeg",
            "name" : "20180517_GlobalColor2017_equi_64ppd_1000_750_430_10percent"
        }
    ],
    "accessors" : [
        {
            "bufferView" : 0,
            "componentType" : 5126,
            "count" : 3319,
            "max" : [
                0.9999993443489075,
                1,
                0.9999985098838806
            ],
            "min" : [
                -0.9999979734420776,
                -1,
                -1
            ],
            "type" : "VEC3"
        },
        {
            "bufferView" : 1,
            "componentType" : 5126,
            "count" : 3319,
            "type" : "VEC3"
        },
        {
            "bufferView" : 2,
            "componentType" : 5126,
            "count" : 3319,
            "type" : "VEC2"
        },
        {
            "bufferView" : 3,
            "componentType" : 5123,
            "count" : 18720,
            "type" : "SCALAR"
        },
        {
            "bufferView" : 5,
            "componentType" : 5126,
            "count" : 500,
            "max" : [
                20
            ],
            "min" : [
                0.04
            ],
            "type" : "SCALAR"
        },
        {
            "bufferView" : 6,
            "componentType" : 5126,
            "count" : 500,
            "type" : "VEC4"
        }
    ],
    "bufferViews" : [
        {
            "buffer" : 0,
            "byteLength" : 39828,
            "byteOffset" : 0,
            "target" : 34962
        },
        {
            "buffer" : 0,
            "byteLength" : 39828,
            "byteOffset" : 39828,
            "target" : 34962
        },
        {
            "buffer" : 0,
            "byteLength" : 26552,
            "byteOffset" : 79656,
            "target" : 34962
        },
        {
            "buffer" : 0,
            "byteLength" : 37440,
            "byteOffset" : 106208,
            "target" : 34963
        },
        {
            "buffer" : 0,
            "byteLength" : 1347091,
            "byteOffset" : 143648
        },
        {
            "buffer" : 0,
            "byteLength" : 2000,
            "byteOffset" : 1490740
        },
        {
            "buffer" : 0,
            "byteLength" : 8000,
            "byteOffset" : 1492740
        }
    ],
    "samplers" : [
        {
            "magFilter" : 9729,
            "minFilter" : 9987
        }
    ],
    "buffers" : [
        {
            "byteLength" : 1500740,
            "uri" : "data:application/octet-stream;base64,"
        }
    ]
}
